<svg id="Camada_1" data-name="Camada 1" xmlns="http://www.w3.org/2000/svg" viewBox="0 0 191.05 95.01"><defs><style>.cls-1{fill:#fff;}.cls-2,.cls-3{fill:#1e1e1c;}.cls-2{fill-rule:evenodd;}.cls-3{isolation:isolate;font-size:84.15px;font-family:RussoOne-Regular, Russo One;}</style></defs><title>codeCrown</title><rect class="cls-1" width="191.05" height="95.01"/><path class="cls-2" d="M56.78,23.41,76,42.66,95.49,23.17,115,42.66l19.24-19.24V59.61A12.24,12.24,0,0,1,122,71.84H69A12.23,12.23,0,0,1,56.78,59.61ZM126.1,43.05V59.61A4.08,4.08,0,0,1,122,63.69H69a4.08,4.08,0,0,1-4.08-4.08h0V43.05L76,54.14,95.49,34.65,115,54.14Z"/><text class="cls-3" transform="translate(147.28 71.53) scale(1.02 1)">&gt;</text><text class="cls-3" transform="translate(0 71.53) scale(1.02 1)">&lt;</text></svg>