<svg id="Camada_1" data-name="Camada 1" xmlns="http://www.w3.org/2000/svg" viewBox="0 0 201.6 168.41"><defs><style>.cls-1{fill:#010101;fill-rule:evenodd;}.cls-2{font-size:86.01px;}.cls-2,.cls-3,.cls-4{fill:#1d1d1b;font-family:RussoOne-Regular, Russo One;}.cls-3{font-size:82.37px;}.cls-4{font-size:84.15px;}</style></defs><title>Rei</title><path class="cls-1" d="M61.78,23.92,81,43.17l19.49-19.49L120,43.17l19.24-19.24V60.12A12.23,12.23,0,0,1,127,72.35H74A12.23,12.23,0,0,1,61.78,60.12ZM131.1,43.56V60.12A4.08,4.08,0,0,1,127,64.2H74a4.08,4.08,0,0,1-4.08-4.08V43.56L81,54.65l19.49-19.49L120,54.65Z" transform="translate(-5)"/><text class="cls-2" transform="translate(9.93 144.41)">R</text><text class="cls-3" transform="matrix(-1, 0, 0, 1, 131.93, 143.08)">E</text><text class="cls-4" transform="translate(139.68 143.59) scale(1.02 1)">I </text><text class="cls-4" transform="translate(143.04 72.35) scale(1.02 1)">&gt;</text><text class="cls-4" transform="translate(0 71.53) scale(1.02 1)">&lt;</text></svg>