<?xml version="1.0" encoding="utf-8"?>
<!-- Generator: Adobe Illustrator 24.0.1, SVG Export Plug-In . SVG Version: 6.00 Build 0)  -->
<svg version="1.1" id="Camada_1" xmlns="http://www.w3.org/2000/svg" xmlns:xlink="http://www.w3.org/1999/xlink" x="0px" y="0px"
	 viewBox="0 0 201.6 168.4" style="enable-background:new 0 0 201.6 168.4;" xml:space="preserve">
<style type="text/css">
	.st0{enable-background:new    ;}
	.st1{fill:#FFFFFF;}
	.st2{fill-rule:evenodd;clip-rule:evenodd;fill:#FFFFFF;}
	.st3{font-family:'RussoOne-Regular';}
	.st4{font-size:84.15px;}
</style>
<title>Rei</title>
<g>
	<g class="st0">
		<path class="st1" d="M21.8,87.4h36.1c6,0,10.4,1.4,13.1,4.1c2.7,2.7,4.1,7.1,4.1,13.1v7.7c0,4.8-0.8,8.5-2.4,11.1
			c-1.6,2.6-4.1,4.4-7.5,5.2L76,147.6H59.2l-9.9-18.1h-12v18.1H21.8V87.4z M59.7,104.6c0-3.4-1.7-5.2-5.2-5.2H37.3v18.1h17.2
			c3.4,0,5.2-1.7,5.2-5.2V104.6z"/>
	</g>
	<g class="st0">
		<path class="st1" d="M88,134.7h30.9v-11.9H94.6v-11.5h24.3v-11.1H88V88.6h45.7v57.7H88V134.7z"/>
	</g>
	<g class="st0">
		<path class="st1" d="M179.9,146.8H149V135h7.7V99.6H149V87.8h30.9v11.8h-7.7V135h7.7V146.8z"/>
	</g>
</g>
<g>
	<path class="st2" d="M62.1,29.7l19.2,19.2l19.5-19.5l19.5,19.5l19.2-19.2v36.2c0,6.8-5.5,12.2-12.2,12.2c0,0,0,0,0,0h-53
		c-6.8,0-12.2-5.5-12.2-12.2V29.7z M131.4,49.3v16.6c0,2.3-1.8,4.1-4.1,4.1c0,0,0,0,0,0h-53c-2.3,0-4.1-1.8-4.1-4.1l0,0V49.3
		l11.1,11.1l19.5-19.5l19.5,19.5L131.4,49.3z"/>
	<text transform="matrix(1.02 0 0 1 152.5975 77.7967)" class="st1 st3 st4">&gt;</text>
	<text transform="matrix(1.02 0 0 1 5.3192 77.7962)" class="st1 st3 st4">&lt;</text>
</g>
</svg>
